<?xml version="1.0" encoding="UTF-8" standalone="no"?><!DOCTYPE svg PUBLIC "-//W3C//DTD SVG 1.1//EN" "http://www.w3.org/Graphics/SVG/1.1/DTD/svg11.dtd"><svg width="100%" height="100%" viewBox="0 0 2000 2000" version="1.1" xmlns="http://www.w3.org/2000/svg" xmlns:xlink="http://www.w3.org/1999/xlink" xml:space="preserve" xmlns:serif="http://www.serif.com/" style="fill-rule:evenodd;clip-rule:evenodd;stroke-linecap:round;stroke-linejoin:round;stroke-miterlimit:1.5;"><g id="old-logo" serif:id="old logo"><path d="M852.571,315.816c47.563,-10.217 96.873,-15.59 147.429,-15.59c386.216,0 699.774,313.558 699.774,699.774c-0,386.216 -313.558,699.774 -699.774,699.774c-386.216,-0 -699.774,-313.558 -699.774,-699.774c0,-50.556 5.373,-99.866 15.59,-147.429c10.499,276.275 238.063,497.316 516.847,497.316c285.464,-0 517.224,-231.76 517.224,-517.224c-0,-278.784 -221.041,-506.348 -497.316,-516.847Z" style="fill:none;stroke:#fff;stroke-width:37.32px;"/><path d="M730.449,372.756l-12.639,59.46l52.645,30.395l-60.456,6.354l-12.639,59.46l-24.725,-55.533l-60.456,6.354l45.175,-40.676l-24.725,-55.533l52.645,30.395l45.175,-40.676Z" style="fill:#fff;"/></g></svg>